PathFileType	4	(X/Y/Z)	S01_0004_Gait_markers.trc
DataRate	CameraRate	NumFrames	NumMarkers	Units	OrigDataRate	OrigDataStartFrame	OrigNumFrames
250.000000	250.000000	4	54	mm	250.000000	280	320
Frame#	Time	HEAD_ANT			R_HEAD			L_HEAD			C7			R_BACK			L_BACK			STERNUM			R_ACROMION			R_HUM_PROX			R_HUM_ANT			R_HUM_POST			R_ELBOW_LAT			R_ELBOW_MED			R_FOREARM			R_WIRST_LAT			R_WRITS_MED			R_HAND			L_ACROMION			L_HUM_PROX			L_HUM_ANT			L_HUM_POST			L_ELBOW_LAT			L_ELBOW_MED			L_FOREARM			L_WRIST_LAT			L_WIRST_MED			L_HAND			R_ILIAC			SACRUM			L_ILIAC			R_GTROCH			R_THIGH__1			R_THIGH_2			R_THIGH_3			R_THIGH_4			R_SHANK_1			R_SHANK_2			R_SHANK_3			R_SHANK_4			R_HEEL			R_FOOT_LAT			R_FOOT_MED			L_GTROCH			L_THIGH_1			L_THIGH_2			L_THIGH_3			L_THIGH_4			L_SHANK_1			L_SHANK_2			L_SHANK_3			L_SHANK_4			L_HEEL			L_FOOT_LAT			L_FOOT_MED			
		X1	Y1	Z1	X2	Y2	Z2	X3	Y3	Z3	X4	Y4	Z4	X5	Y5	Z5	X6	Y6	Z6	X7	Y7	Z7	X8	Y8	Z8	X9	Y9	Z9	X10	Y10	Z10	X11	Y11	Z11	X12	Y12	Z12	X13	Y13	Z13	X14	Y14	Z14	X15	Y15	Z15	X16	Y16	Z16	X17	Y17	Z17	X18	Y18	Z18	X19	Y19	Z19	X20	Y20	Z20	X21	Y21	Z21	X22	Y22	Z22	X23	Y23	Z23	X24	Y24	Z24	X25	Y25	Z25	X26	Y26	Z26	X27	Y27	Z27	X28	Y28	Z28	X29	Y29	Z29	X30	Y30	Z30	X31	Y31	Z31	X32	Y32	Z32	X33	Y33	Z33	X34	Y34	Z34	X35	Y35	Z35	X36	Y36	Z36	X37	Y37	Z37	X38	Y38	Z38	X39	Y39	Z39	X40	Y40	Z40	X41	Y41	Z41	X42	Y42	Z42	X43	Y43	Z43	X44	Y44	Z44	X45	Y45	Z45	X46	Y46	Z46	X47	Y47	Z47	X48	Y48	Z48	X49	Y49	Z49	X50	Y50	Z50	X51	Y51	Z51	X52	Y52	Z52	X53	Y53	Z53	X54	Y54	Z54	

281	1.12	1728.064819335938	372.1474609375	1710.430786132812	1664.503540039062	293.8009338378906	1668.792602539062	1669.40966796875	439.4662475585938	1656.876586914062	1524.772827148438	365.4545593261719	1498.207641601562	1440.700073242188	309.3757019042969	1300.903442382812	1451.720458984375	446.5049133300781	1308.633911132812	1697.763793945312	353.3109741210938	1329.330200195312	1587.201416015625	188.3517608642578	1442.7158203125	1532.93408203125	104.6123199462891	1283.23388671875	1590.205810546875	92.77960205078125	1195.685302734375	1469.13330078125	99.02329254150391	1202.938232421875	1512.724731445312	84.75766754150391	1094.08837890625	1496.741333007812	166.7910614013672	1090.033935546875	1605.973388671875	73.56940460205078	908.3800048828125	1648.057861328125	108.538932800293	842.0526123046875	1574.507446289062	79.84340667724609	820.2054443359375	1638.6943359375	55.65544509887695	752.2800903320312	1619.10009765625	526.6198120117188	1452.38037109375	1620.417846679688	624.3470458984375	1289.232421875	1687.31982421875	614.7906494140625	1213.635131835938	1572.148071289062	658.702880859375	1208.206665039062	1639.674438476562	661.5704956054688	1109.672729492188	1582.884033203125	611.9443969726562	1097.91552734375	1765.320678710938	627.8819580078125	949.3587646484375	1796.169311523438	572.5023803710938	891.48974609375	1765.296020507812	640.27197265625	865.3866577148438	1846.831909179688	616.8560180664062	821.2432861328125	1597.1025390625	201.7578277587891	1044.046875	1468.488525390625	367.4476623535156	1021.351257324219	1585.027099609375	546.4396362304688	1048.981811523438	1565.1396484375	189.4300842285156	895.2514038085938	1679.553100585938	211.9927673339844	628.6203002929688	1727.61669921875	204.693115234375	661.9896240234375	1765.962524414062	244.7187347412109	569.2081909179688	1702.863891601562	237.5612487792969	552.9304809570312	1772.5068359375	237.1842193603516	336.9142761230469	1831.844970703125	249.998779296875	338.9042053222656	1861.03515625	269.3111572265625	259.6744384765625	1798.952880859375	261.4783020019531	241.166015625	1849.254028320312	352.239013671875	33.35212707519531	2010.541137695312	267.2627868652344	63.11435317993164	2052.059326171875	353.7986755371094	107.5349578857422	1537.262084960938	549.6464233398438	941.796875	1538.179321289062	538.0292358398438	650.5848999023438	1492.091918945312	549.5289306640625	685.6221923828125	1449.994995117188	518.15087890625	593.6710205078125	1511.470092773438	512.8587646484375	576.4808349609375	1362.216796875	496.7249145507812	337.3557434082031	1301.6376953125	498.5381774902344	343.2998657226562	1262.169555664062	478.1373596191406	267.4591369628906	1322.194213867188	471.2495422363281	245.5427551269531	1146.4755859375	402.0792236328125	116.2301940917969	1297.463134765625	463.3151245117188	19.39088249206543	1336.836791992188	359.9968872070312	29.81062507629395	
282	1.124	1733.86962890625	371.4790344238281	1709.796020507812	1670.44287109375	293.1443481445312	1668.297119140625	1675.483276367188	438.7702026367188	1656.277709960938	1530.607421875	364.8319396972656	1497.404418945312	1446.906860351562	308.8821105957031	1299.988525390625	1457.933837890625	445.533203125	1307.750366210938	1703.89208984375	352.7839050292969	1328.78466796875	1593.124267578125	187.7451782226562	1441.999145507812	1538.949829101562	104.3286056518555	1282.319946289062	1596.34326171875	92.59271240234375	1194.859497070312	1475.093505859375	98.908447265625	1201.9658203125	1518.714965820312	84.70912170410156	1093.092041015625	1502.846435546875	166.9228668212891	1089.249755859375	1611.500244140625	73.61175537109375	907.412353515625	1653.850219726562	108.3733596801758	841.0812377929688	1580.053955078125	80.05988311767578	819.12060546875	1643.86083984375	55.71616744995117	751.0944213867188	1624.762451171875	526.1721801757812	1451.827026367188	1626.227172851562	623.8060913085938	1288.63427734375	1693.238403320312	614.3909912109375	1213.012329101562	1578.000366210938	658.1314697265625	1207.564086914062	1645.227783203125	661.0873413085938	1109.1591796875	1589.056884765625	611.0781860351562	1097.400268554688	1770.906372070312	627.84228515625	948.5404052734375	1801.976318359375	572.5945434570312	890.7648315429688	1770.68603515625	640.219970703125	864.7234497070312	1852.280639648438	617.1707153320312	820.3179321289062	1603.295043945312	201.3463745117188	1043.43310546875	1474.951538085938	367.1972045898438	1020.574279785156	1591.404541015625	546.0822143554688	1048.46923828125	1571.726806640625	189.4625244140625	894.607666015625	1686.694091796875	212.3424224853516	628.3034057617188	1734.769653320312	205.1245422363281	661.7947998046875	1773.238891601562	245.2382965087891	569.0529174804688	1710.200073242188	238.0572052001953	552.6854858398438	1778.913940429688	238.0338745117188	336.1015319824219	1838.315063476562	250.7044525146484	337.9981079101562	1867.033203125	269.9647521972656	258.5895080566406	1804.765380859375	261.9793090820312	240.4671478271484	1853.8134765625	353.0533752441406	32.33673858642578	2015.116821289062	268.1641540527344	61.65187454223633	2056.697509765625	354.8572387695312	105.8217086791992	1543.776489257812	549.2081909179688	941.1867065429688	1544.570434570312	538.4010009765625	650.0220947265625	1498.716796875	549.7449951171875	685.0663452148438	1456.635620117188	518.6806030273438	593.01025390625	1518.095825195312	513.4008178710938	576.037109375	1366.89697265625	497.3309936523438	337.1407775878906	1306.472778320312	499.2573852539062	343.7959289550781	1265.963500976562	479.3558044433594	268.5414123535156	1325.538818359375	472.0903625488281	246.2212219238281	1148.355834960938	403.3260192871094	119.2394943237305	1297.77099609375	463.6244201660156	19.45314407348633	1336.86962890625	360.2435302734375	29.94514846801758	
283	1.128	1739.851196289062	370.984375	1709.33642578125	1676.276733398438	292.5339050292969	1667.599365234375	1681.193969726562	438.1066284179688	1655.756225585938	1536.521728515625	364.1653747558594	1496.8115234375	1452.842895507812	308.2701416015625	1299.18017578125	1463.623779296875	445.3614501953125	1307.130004882812	1709.997314453125	352.335693359375	1328.27587890625	1599.125610351562	187.2266235351562	1441.301513671875	1544.965087890625	103.9582061767578	1281.465087890625	1602.358764648438	92.25494384765625	1193.98583984375	1481.141235351562	98.70361328125	1201.184936523438	1524.703857421875	84.73735046386719	1092.124145507812	1509.33203125	166.9466094970703	1088.516845703125	1617.30419921875	73.68466186523438	906.3072509765625	1659.550048828125	108.3548278808594	839.884033203125	1585.6298828125	80.38898468017578	818.1710205078125	1649.211669921875	55.98044204711914	749.87939453125	1630.7265625	525.6464233398438	1451.336547851562	1632.13427734375	623.3091430664062	1288.197631835938	1698.8095703125	613.9490966796875	1212.471557617188	1583.601928710938	657.4299926757812	1207.037841796875	1650.911010742188	660.3843383789062	1108.633911132812	1594.506103515625	610.2313232421875	1096.961669921875	1776.512939453125	627.8585815429688	947.8945922851562	1807.687744140625	572.6978149414062	889.9703369140625	1776.213745117188	640.3013916015625	864.0196533203125	1857.732055664062	617.2322387695312	819.8333129882812	1609.671264648438	200.8779449462891	1042.908081054688	1481.356689453125	366.96923828125	1019.870788574219	1597.456298828125	545.8531494140625	1048.164916992188	1578.206909179688	189.3848571777344	894.0745239257812	1693.91845703125	212.9255981445312	627.8944702148438	1741.94140625	205.8851165771484	661.4385986328125	1780.592529296875	245.7667846679688	568.915283203125	1717.480590820312	238.0399475097656	552.3226928710938	1785.368041992188	238.5356140136719	335.561767578125	1844.633178710938	251.444091796875	336.8431091308594	1872.754028320312	270.7502136230469	257.3592834472656	1810.493286132812	262.5404663085938	239.7711029052734	1858.001342773438	353.7741088867188	31.15325355529785	2019.263427734375	268.9485168457031	59.90234375	2060.98583984375	355.7100524902344	103.487060546875	1550.070068359375	548.9019165039062	940.7584838867188	1551.0341796875	538.3887329101562	649.516357421875	1505.333984375	549.8450927734375	684.5619506835938	1463.40380859375	519.2858276367188	592.4595947265625	1524.675903320312	514.0560302734375	575.2841796875	1371.874755859375	498.2451477050781	337.2593383789062	1311.4833984375	500.4347534179688	344.6387329101562	1269.953857421875	480.29345703125	269.8776550292969	1329.409545898438	472.73291015625	246.5086975097656	1150.260498046875	404.5807495117188	122.2450332641602	1298.037353515625	463.8568420410156	19.58549690246582	1337.015869140625	360.4791870117188	30.05526924133301	
284	1.132	1745.617309570312	370.3261413574219	1708.71044921875	1682.139038085938	291.882080078125	1667.009155273438	1687.087158203125	437.6049194335938	1655.15380859375	1542.466430664062	363.5848083496094	1496.2529296875	1458.97216796875	307.6944274902344	1298.348266601562	1469.762084960938	444.932373046875	1306.56640625	1716.135498046875	351.81640625	1327.8447265625	1605.189331054688	186.5200805664062	1440.608032226562	1551.0732421875	103.4316635131836	1280.5791015625	1608.457275390625	92.10116577148438	1193.099487304688	1487.191650390625	98.62541961669922	1200.2568359375	1530.845703125	84.63765716552734	1091.387451171875	1515.228149414062	167.0943756103516	1087.719970703125	1623.097778320312	73.63088989257812	905.356201171875	1664.147094726562	108.8721771240234	838.2601318359375	1591.220825195312	80.57779693603516	817.2056884765625	1654.524047851562	56.18675994873047	748.6995849609375	1636.53515625	525.012939453125	1450.889770507812	1637.915161132812	622.6976318359375	1287.669555664062	1704.776489257812	613.4142456054688	1211.961547851562	1589.4052734375	656.8709106445312	1206.577270507812	1656.432739257812	659.8203125	1108.085205078125	1600.497924804688	609.6484985351562	1096.59228515625	1781.553588867188	627.8806762695312	947.3085327148438	1813.251342773438	572.7848510742188	889.273681640625	1781.503295898438	640.4082641601562	863.423828125	1863.179443359375	617.6276245117188	819.1023559570312	1615.69970703125	200.6272277832031	1042.379516601562	1487.84228515625	366.8753967285156	1019.1865234375	1603.90966796875	545.666015625	1047.819702148438	1584.9150390625	189.3022918701172	893.4581298828125	1701.161376953125	213.7422790527344	627.6195678710938	1749.167236328125	206.3878784179688	661.1022338867188	1787.851318359375	246.3551788330078	568.579833984375	1724.786865234375	238.6370391845703	552.193603515625	1791.563110351562	239.6585083007812	334.6103820800781	1850.905517578125	252.5676879882812	335.7607116699219	1877.717651367188	271.9152221679688	255.8477783203125	1815.996826171875	263.2361450195312	238.8080902099609	1861.689208984375	354.4801635742188	29.93560028076172	2023.022583007812	269.62890625	57.92885589599609	2064.96826171875	356.4176025390625	101.4816818237305	1556.527221679688	548.6986694335938	940.3446044921875	1558.006591796875	538.7719116210938	648.9879150390625	1512.0791015625	550.207763671875	684.1041870117188	1470.335083007812	519.8533935546875	591.5725708007812	1531.780883789062	514.4163818359375	574.758544921875	1376.7646484375	499.0090942382812	337.2800903320312	1316.5927734375	501.1378784179688	345.4481506347656	1274.098388671875	481.3624267578125	271.1242980957031	1333.14794921875	473.7930603027344	247.0741882324219	1152.346801757812	405.9104309082031	125.2913131713867	1298.40380859375	464.0556030273438	19.76056480407715	1337.107543945312	360.6860656738281	30.17160797119141	
